<svg width="30" height="40" viewBox="0 0 30 40" fill="none" xmlns="http://www.w3.org/2000/svg">
<g clip-path="url(#clip0_9_367)">
<path d="M19.6979 14.4479L15.5424 18.1725L11.685 10.6794L13.6777 6.37101C14.1814 5.51159 15.005 5.50024 15.5087 6.37101L19.6979 14.4479Z" fill="#FFA000"/>
<path d="M15.5441 18.1709L0 32.0885L11.6867 10.6794L15.5441 18.1709Z" fill="#F57F17"/>
<path d="M24.2544 8.75142C24.9989 8.06875 25.7653 8.29901 25.959 9.26868L30 31.9004L16.5969 39.6465C16.1269 39.8995 14.8804 39.9984 14.8804 39.9984C14.8804 39.9984 13.7468 39.8654 13.3122 39.6352L0 32.0885L24.2544 8.75142Z" fill="#FFCA28"/>
<path d="M11.6867 10.6796L0 32.0887L5.20831 0.796318C5.40371 -0.17336 5.97473 -0.272273 6.49017 0.58714L11.6867 10.6796Z" fill="#FFA000"/>
</g>
<defs>
<clipPath id="clip0_9_367">
<rect width="30" height="40" fill="white"/>
</clipPath>
</defs>
</svg>
