<?xml version="1.0"?>
<svg xmlns="http://www.w3.org/2000/svg" viewBox="0 0 64 64" width="512" height="512"><g id="Graduation_Hat" data-name="Graduation Hat"><path d="M59.2842,23.041l-27-8a1.0049,1.0049,0,0,0-.5684,0l-27,8a1,1,0,0,0,0,1.918l27,8a1.0055,1.0055,0,0,0,.5684,0L52,27.1172V41a.9994.9994,0,0,0-.9863.8359l-1,6A1,1,0,0,0,51,49h4a1,1,0,0,0,.9863-1.1641l-1-6A.9993.9993,0,0,0,54,41V26.5247l5.2842-1.5657a1,1,0,0,0,0-1.918Z"/><path d="M32,35a2.9812,2.9812,0,0,1-.85-.123L17,30.6847V42c0,3.4355,7.7754,5,15,5s15-1.5645,15-5V30.6846L32.8525,34.877A3.016,3.016,0,0,1,32,35Z"/></g></svg>
